<svg id="Layer_1" data-name="Layer 1" xmlns="http://www.w3.org/2000/svg" xmlns:xlink="http://www.w3.org/1999/xlink" viewBox="0 0 295.89 293.9"><defs><style>.cls-1{fill:none;clip-rule:evenodd;}.cls-2{clip-path:url(#clip-path);}.cls-3{fill:url(#linear-gradient);}</style><clipPath id="clip-path" transform="translate(-51.63 -52.7)"><path class="cls-1" d="M199.33,115a1.71,1.71,0,1,1-1.71,1.71,1.71,1.71,0,0,1,1.71-1.71m17.74,3.8a3.07,3.07,0,1,1,3.08,3.07A3.08,3.08,0,0,1,217.07,118.81Zm24.13.77a4.36,4.36,0,1,1-4.35,4.35A4.36,4.36,0,0,1,241.2,119.58ZM262,127.69a6.09,6.09,0,1,1-6.06,6.09A6.08,6.08,0,0,1,262,127.69ZM281.5,141a8,8,0,1,1-8,8A8,8,0,0,1,281.5,141Zm16.16,19.73a9.36,9.36,0,1,1-9.35,9.37A9.37,9.37,0,0,1,297.66,160.75ZM202,341.56a2.51,2.51,0,0,1,2.52,2.52,2.52,2.52,0,0,1-5,0A2.51,2.51,0,0,1,202,341.56Zm34.57-9.26a3,3,0,1,1-3,3A3,3,0,0,1,236.55,332.3ZM269,312a5.17,5.17,0,1,1-5.17,5.16A5.16,5.16,0,0,1,269,312Zm24.42-29a7.54,7.54,0,1,1-7.54,7.56A7.55,7.55,0,0,1,293.43,283Zm14.65-32.79a9,9,0,1,1-9,9A9,9,0,0,1,308.08,250.22Zm.79-63.91a10.15,10.15,0,1,1-10.16,10.14A10.15,10.15,0,0,1,308.87,186.31ZM196.26,277.72A1.73,1.73,0,1,1,198,276,1.73,1.73,0,0,1,196.26,277.72Zm-20.8-.77a3.06,3.06,0,1,1,3-3.05A3,3,0,0,1,175.46,277Zm-21.08-3.85a4.36,4.36,0,1,1,4.38-4.35A4.34,4.34,0,0,1,154.38,273.1ZM133.59,265a6.07,6.07,0,1,1,6.08-6.06A6.06,6.06,0,0,1,133.59,265Zm-19.48-13.3a8,8,0,1,1,8-8A8,8,0,0,1,114.11,251.69ZM97.92,231.94a9.36,9.36,0,1,1,9.38-9.36A9.36,9.36,0,0,1,97.92,231.94ZM159.06,60.41a3,3,0,1,1,3-3A3,3,0,0,1,159.06,60.41ZM126.6,80.76a5.17,5.17,0,1,1,5.17-5.17A5.19,5.19,0,0,1,126.6,80.76Zm-24.42,28.93a7.54,7.54,0,1,1,7.54-7.54A7.55,7.55,0,0,1,102.18,109.69ZM87.5,142.51a9,9,0,1,1,9.06-9A9.06,9.06,0,0,1,87.5,142.51Zm-.76,63.89a10.16,10.16,0,1,1,10.14-10.17A10.16,10.16,0,0,1,86.74,206.4Zm-3.61-30.24A10.16,10.16,0,1,1,93.29,166,10.15,10.15,0,0,1,83.13,176.16ZM117,205.07a1.71,1.71,0,0,1,3.3-.89,1.72,1.72,0,0,1-1.21,2.11A1.7,1.7,0,0,1,117,205.07Zm-4.66-20.28a3,3,0,1,1,5.89-1.58,3,3,0,0,1-5.89,1.58Zm-1.75-21.36a4.35,4.35,0,1,1,5.34,3.1A4.34,4.34,0,0,1,110.59,163.43ZM113,141.25a6.08,6.08,0,1,1,7.44,4.29A6.11,6.11,0,0,1,113,141.25ZM120.86,119a8,8,0,1,1,9.8,5.68A8,8,0,0,1,120.86,119Zm14.86-20.71a9.37,9.37,0,1,1,11.47,6.61A9.44,9.44,0,0,1,135.72,98.27Zm181.52,14.65a3,3,0,0,1,2.13-3.68,3,3,0,0,1,1.55,5.77A3,3,0,0,1,317.24,112.92Zm-28-26.1a5.16,5.16,0,1,1,6.31,3.63A5.17,5.17,0,0,1,289.21,86.82ZM254.94,70.7A7.54,7.54,0,1,1,264.16,76,7.58,7.58,0,0,1,254.94,70.7ZM219.44,65a9,9,0,1,1,11.07,6.41A9,9,0,0,1,219.44,65Zm-61.92,15.8A10.15,10.15,0,1,1,170,88,10.17,10.17,0,0,1,157.52,80.84ZM185.8,69.53a10.16,10.16,0,1,1,12.42,7.17A10.17,10.17,0,0,1,185.8,69.53ZM148.6,127.8a1.7,1.7,0,1,1,2.41,2.41,1.68,1.68,0,0,1-2.41,0A1.66,1.66,0,0,1,148.6,127.8Zm15.22-14.2a3.07,3.07,0,1,1,0,4.35A3.07,3.07,0,0,1,163.82,113.6Zm17.62-12.17a4.36,4.36,0,1,1,0,6.17A4.33,4.33,0,0,1,181.44,101.43Zm20.45-9a6.07,6.07,0,1,1,0,8.58A6.08,6.08,0,0,1,201.89,92.46Zm23.17-4.36a8,8,0,1,1,0,11.32A8,8,0,0,1,225.06,88.1Zm38.63,15.76a9.36,9.36,0,1,1,0-13.24A9.41,9.41,0,0,1,263.69,103.86Zm64.85,151.26a3,3,0,0,1,4.22,0,3,3,0,0,1,0,4.23,2.92,2.92,0,0,1-4.22,0A3,3,0,0,1,328.54,255.12Zm8.56-37.32a5.17,5.17,0,1,1,0,7.3A5.22,5.22,0,0,1,337.1,217.8Zm-3.18-37.75a7.54,7.54,0,1,1,0,10.67A7.51,7.51,0,0,1,333.92,180.05ZM321.08,146.5a9,9,0,1,1,0,12.79A9,9,0,0,1,321.08,146.5Zm-44.64-45.74a10.16,10.16,0,1,1,0,14.38A10.21,10.21,0,0,1,276.44,100.76Zm23.93,18.84a10.16,10.16,0,1,1,0,14.37A10.18,10.18,0,0,1,300.37,119.6Zm-19.11,67.07a1.7,1.7,0,0,1-1.21,2.11,1.71,1.71,0,1,1-.88-3.31A1.69,1.69,0,0,1,281.26,186.67Zm4.66,20.3a3.06,3.06,0,1,1-3.74-2.15A3,3,0,0,1,285.92,207Zm1.75,21.34a4.36,4.36,0,1,1-5.34-3.08A4.35,4.35,0,0,1,287.67,228.31Zm-2.46,22.21a6.07,6.07,0,1,1-7.43-4.32A6.1,6.1,0,0,1,285.21,250.52Zm-7.81,22.24a8,8,0,1,1-9.81-5.65A8.05,8.05,0,0,1,277.4,272.76ZM262.52,293.5a9.36,9.36,0,1,1-11.47-6.62A9.38,9.38,0,0,1,262.52,293.5ZM81,278.85a3,3,0,0,1-5.76,1.56A3,3,0,1,1,81,278.85ZM109.05,305a5.17,5.17,0,1,1-6.32-3.67A5.17,5.17,0,0,1,109.05,305Zm34.27,16.1a7.54,7.54,0,1,1-9.22-5.33A7.54,7.54,0,0,1,143.32,321.06Zm35.49,5.64a9,9,0,1,1-11.06-6.38A9,9,0,0,1,178.81,326.7Zm61.93-15.76a10.16,10.16,0,1,1-12.43-7.17A10.18,10.18,0,0,1,240.74,310.94Zm-28.28,11.3A10.16,10.16,0,1,1,200,315,10.17,10.17,0,0,1,212.46,322.24Zm38.12-57.12a1.71,1.71,0,0,1-2.42-2.41,1.71,1.71,0,1,1,2.42,2.41ZM235.33,279.3a3.06,3.06,0,1,1,0-4.32A3.07,3.07,0,0,1,235.33,279.3Zm-17.59,12.19a4.37,4.37,0,1,1,0-6.17A4.4,4.4,0,0,1,217.74,291.49Zm-20.46,9a6.07,6.07,0,1,1,0-8.59A6.07,6.07,0,0,1,197.28,300.46Zm-23.19,4.35a8,8,0,1,1,0-11.34A8,8,0,0,1,174.09,304.81Zm-25.39-2.49a9.36,9.36,0,1,1,0-13.24A9.41,9.41,0,0,1,148.7,302.32ZM70.61,137.77a3,3,0,0,1-4.22,0,3,3,0,0,1,4.22-4.23A3,3,0,0,1,70.61,137.77Zm-8.55,37.35a5.18,5.18,0,1,1,0-7.31A5.17,5.17,0,0,1,62.06,175.12Zm3.18,37.73a7.54,7.54,0,1,1,0-10.66A7.53,7.53,0,0,1,65.24,212.85Zm12.85,33.56a9,9,0,1,1,0-12.76A9,9,0,0,1,78.09,246.41Zm44.63,45.74a10.15,10.15,0,1,1,0-14.35A10.16,10.16,0,0,1,122.72,292.15ZM98.78,273.32a10.15,10.15,0,1,1,0-14.35A10.13,10.13,0,0,1,98.78,273.32Zm213.68-56.78a10.16,10.16,0,1,1-10.14,10.15A10.15,10.15,0,0,1,312.46,216.54Z"/></clipPath><linearGradient id="linear-gradient" x1="118.66" y1="280.77" x2="178.14" y2="8.98" gradientUnits="userSpaceOnUse"><stop offset="0" stop-color="#209e8f"/><stop offset="1" stop-color="#6abf6a"/></linearGradient></defs><g class="cls-2"><rect class="cls-3" width="295.89" height="293.9"/></g></svg>